<mxfile host="app.diagrams.net" modified="2023-12-09T23:58:22.998Z" agent="Mozilla/5.0 (Macintosh; Intel Mac OS X 10_15_7) AppleWebKit/605.1.15 (KHTML, like Gecko) Version/16.5.1 Safari/605.1.15" etag="FTDi0PCuWdkzBSzhOssW" version="22.1.7" type="github">
  <diagram name="Page-1" id="Hk-SXwCdUtSoD7dCNRQY">
    <mxGraphModel dx="3237" dy="3047" grid="0" gridSize="10" guides="1" tooltips="1" connect="1" arrows="1" fold="1" page="0" pageScale="1" pageWidth="827" pageHeight="1169" math="0" shadow="0">
      <root>
        <mxCell id="0" />
        <mxCell id="1" parent="0" />
        <mxCell id="pXTbhTJN17nyA_IUPfKZ-1" value="WelcomeForm" style="rounded=0;whiteSpace=wrap;html=1;fontSize=16;" vertex="1" parent="1">
          <mxGeometry x="143" y="170" width="141" height="29" as="geometry" />
        </mxCell>
        <mxCell id="pXTbhTJN17nyA_IUPfKZ-3" value="" style="endArrow=none;dashed=1;html=1;rounded=0;fontSize=12;startSize=8;endSize=8;curved=1;" edge="1" parent="1" source="pXTbhTJN17nyA_IUPfKZ-10">
          <mxGeometry width="50" height="50" relative="1" as="geometry">
            <mxPoint x="210" y="700" as="sourcePoint" />
            <mxPoint x="216" y="200" as="targetPoint" />
          </mxGeometry>
        </mxCell>
        <mxCell id="pXTbhTJN17nyA_IUPfKZ-4" value="Consultant" style="shape=umlActor;verticalLabelPosition=bottom;verticalAlign=top;html=1;outlineConnect=0;fontSize=16;" vertex="1" parent="1">
          <mxGeometry x="-88" y="89" width="47" height="90" as="geometry" />
        </mxCell>
        <mxCell id="pXTbhTJN17nyA_IUPfKZ-5" value="" style="endArrow=none;dashed=1;html=1;rounded=0;fontSize=12;startSize=8;endSize=8;curved=1;" edge="1" parent="1" source="pXTbhTJN17nyA_IUPfKZ-6">
          <mxGeometry width="50" height="50" relative="1" as="geometry">
            <mxPoint x="-62" y="243" as="sourcePoint" />
            <mxPoint x="-68" y="698" as="targetPoint" />
          </mxGeometry>
        </mxCell>
        <mxCell id="pXTbhTJN17nyA_IUPfKZ-8" value="" style="endArrow=none;dashed=1;html=1;rounded=0;fontSize=12;startSize=8;endSize=8;curved=1;" edge="1" parent="1" target="pXTbhTJN17nyA_IUPfKZ-6">
          <mxGeometry width="50" height="50" relative="1" as="geometry">
            <mxPoint x="-64" y="200" as="sourcePoint" />
            <mxPoint x="-68" y="698" as="targetPoint" />
          </mxGeometry>
        </mxCell>
        <mxCell id="pXTbhTJN17nyA_IUPfKZ-6" value="" style="rounded=0;whiteSpace=wrap;html=1;fontSize=16;" vertex="1" parent="1">
          <mxGeometry x="-80.5" y="253" width="32" height="369" as="geometry" />
        </mxCell>
        <mxCell id="pXTbhTJN17nyA_IUPfKZ-9" value="" style="endArrow=classic;html=1;rounded=0;fontSize=12;startSize=8;endSize=8;curved=1;entryX=0;entryY=0.25;entryDx=0;entryDy=0;" edge="1" parent="1" target="pXTbhTJN17nyA_IUPfKZ-10">
          <mxGeometry width="50" height="50" relative="1" as="geometry">
            <mxPoint x="-48" y="329" as="sourcePoint" />
            <mxPoint x="80" y="362" as="targetPoint" />
          </mxGeometry>
        </mxCell>
        <mxCell id="pXTbhTJN17nyA_IUPfKZ-11" value="" style="endArrow=none;dashed=1;html=1;rounded=0;fontSize=12;startSize=8;endSize=8;curved=1;" edge="1" parent="1" target="pXTbhTJN17nyA_IUPfKZ-10">
          <mxGeometry width="50" height="50" relative="1" as="geometry">
            <mxPoint x="210" y="700" as="sourcePoint" />
            <mxPoint x="216" y="200" as="targetPoint" />
          </mxGeometry>
        </mxCell>
        <mxCell id="pXTbhTJN17nyA_IUPfKZ-10" value="" style="rounded=0;whiteSpace=wrap;html=1;fontSize=16;" vertex="1" parent="1">
          <mxGeometry x="197" y="253" width="33" height="304" as="geometry" />
        </mxCell>
        <mxCell id="pXTbhTJN17nyA_IUPfKZ-12" value="1. Click onTutorials link" style="text;html=1;strokeColor=none;fillColor=none;align=center;verticalAlign=middle;whiteSpace=wrap;rounded=0;fontSize=16;" vertex="1" parent="1">
          <mxGeometry x="-25" y="298" width="192" height="22" as="geometry" />
        </mxCell>
        <mxCell id="pXTbhTJN17nyA_IUPfKZ-20" value="" style="rounded=0;whiteSpace=wrap;html=1;fontSize=16;" vertex="1" parent="1">
          <mxGeometry x="217" y="353" width="26" height="97" as="geometry" />
        </mxCell>
        <mxCell id="pXTbhTJN17nyA_IUPfKZ-21" value="" style="endArrow=classic;html=1;rounded=0;fontSize=12;startSize=8;endSize=8;curved=1;entryX=0.051;entryY=0.091;entryDx=0;entryDy=0;entryPerimeter=0;" edge="1" parent="1" target="pXTbhTJN17nyA_IUPfKZ-23">
          <mxGeometry width="50" height="50" relative="1" as="geometry">
            <mxPoint x="244" y="370" as="sourcePoint" />
            <mxPoint x="294" y="370" as="targetPoint" />
          </mxGeometry>
        </mxCell>
        <mxCell id="pXTbhTJN17nyA_IUPfKZ-22" value="" style="endArrow=classic;html=1;rounded=0;fontSize=12;startSize=8;endSize=8;curved=1;entryX=0.962;entryY=0.845;entryDx=0;entryDy=0;entryPerimeter=0;exitX=0;exitY=0.935;exitDx=0;exitDy=0;exitPerimeter=0;" edge="1" parent="1" source="pXTbhTJN17nyA_IUPfKZ-23">
          <mxGeometry width="50" height="50" relative="1" as="geometry">
            <mxPoint x="292.99" y="435" as="sourcePoint" />
            <mxPoint x="243.00200000000007" y="434.9649999999999" as="targetPoint" />
          </mxGeometry>
        </mxCell>
        <mxCell id="pXTbhTJN17nyA_IUPfKZ-23" value="" style="rounded=0;whiteSpace=wrap;html=1;fontSize=16;" vertex="1" parent="1">
          <mxGeometry x="294.99" y="363" width="20" height="77" as="geometry" />
        </mxCell>
        <mxCell id="pXTbhTJN17nyA_IUPfKZ-25" value="Tutorials.pdf" style="text;html=1;strokeColor=none;fillColor=none;align=center;verticalAlign=middle;whiteSpace=wrap;rounded=0;fontSize=16;" vertex="1" parent="1">
          <mxGeometry x="332" y="386.25" width="72" height="30.5" as="geometry" />
        </mxCell>
        <mxCell id="pXTbhTJN17nyA_IUPfKZ-26" value="close" style="text;html=1;strokeColor=none;fillColor=none;align=center;verticalAlign=middle;whiteSpace=wrap;rounded=0;fontSize=16;" vertex="1" parent="1">
          <mxGeometry x="243" y="440" width="60" height="30" as="geometry" />
        </mxCell>
        <mxCell id="pXTbhTJN17nyA_IUPfKZ-27" value="open" style="text;html=1;strokeColor=none;fillColor=none;align=center;verticalAlign=middle;whiteSpace=wrap;rounded=0;fontSize=16;" vertex="1" parent="1">
          <mxGeometry x="239" y="333" width="60" height="30" as="geometry" />
        </mxCell>
        <mxCell id="pXTbhTJN17nyA_IUPfKZ-28" value="1.User Story 1 as a consultant" style="text;html=1;strokeColor=none;fillColor=none;align=center;verticalAlign=middle;whiteSpace=wrap;rounded=0;fontSize=16;" vertex="1" parent="1">
          <mxGeometry x="66" y="36" width="171" height="37" as="geometry" />
        </mxCell>
        <mxCell id="pXTbhTJN17nyA_IUPfKZ-29" value="3. User Strory as an admin" style="text;html=1;strokeColor=none;fillColor=none;align=center;verticalAlign=middle;whiteSpace=wrap;rounded=0;fontSize=16;" vertex="1" parent="1">
          <mxGeometry x="780" y="9" width="153" height="47" as="geometry" />
        </mxCell>
        <mxCell id="pXTbhTJN17nyA_IUPfKZ-30" value="Admin" style="shape=umlActor;verticalLabelPosition=bottom;verticalAlign=top;html=1;outlineConnect=0;fontSize=16;" vertex="1" parent="1">
          <mxGeometry x="730" y="89" width="50" height="100" as="geometry" />
        </mxCell>
        <mxCell id="pXTbhTJN17nyA_IUPfKZ-31" value="" style="endArrow=none;dashed=1;html=1;rounded=0;fontSize=12;startSize=8;endSize=8;curved=1;" edge="1" parent="1" source="pXTbhTJN17nyA_IUPfKZ-33">
          <mxGeometry width="50" height="50" relative="1" as="geometry">
            <mxPoint x="753" y="690" as="sourcePoint" />
            <mxPoint x="753" y="215" as="targetPoint" />
          </mxGeometry>
        </mxCell>
        <mxCell id="pXTbhTJN17nyA_IUPfKZ-34" value="" style="endArrow=none;dashed=1;html=1;rounded=0;fontSize=12;startSize=8;endSize=8;curved=1;" edge="1" parent="1" target="pXTbhTJN17nyA_IUPfKZ-33">
          <mxGeometry width="50" height="50" relative="1" as="geometry">
            <mxPoint x="760" y="846" as="sourcePoint" />
            <mxPoint x="753" y="215" as="targetPoint" />
          </mxGeometry>
        </mxCell>
        <mxCell id="pXTbhTJN17nyA_IUPfKZ-33" value="" style="rounded=0;whiteSpace=wrap;html=1;fontSize=16;" vertex="1" parent="1">
          <mxGeometry x="735" y="263" width="35" height="472" as="geometry" />
        </mxCell>
        <mxCell id="pXTbhTJN17nyA_IUPfKZ-35" value="" style="endArrow=classic;html=1;rounded=0;fontSize=12;startSize=8;endSize=8;curved=1;" edge="1" parent="1">
          <mxGeometry width="50" height="50" relative="1" as="geometry">
            <mxPoint x="771" y="320" as="sourcePoint" />
            <mxPoint x="1064" y="320" as="targetPoint" />
          </mxGeometry>
        </mxCell>
        <mxCell id="pXTbhTJN17nyA_IUPfKZ-37" value="" style="endArrow=none;dashed=1;html=1;rounded=0;fontSize=12;startSize=8;endSize=8;curved=1;entryX=0.417;entryY=0.911;entryDx=0;entryDy=0;entryPerimeter=0;" edge="1" parent="1" source="pXTbhTJN17nyA_IUPfKZ-36" target="pXTbhTJN17nyA_IUPfKZ-38">
          <mxGeometry width="50" height="50" relative="1" as="geometry">
            <mxPoint x="1093" y="692" as="sourcePoint" />
            <mxPoint x="1093" y="216" as="targetPoint" />
          </mxGeometry>
        </mxCell>
        <mxCell id="pXTbhTJN17nyA_IUPfKZ-38" value="AdminHomePage" style="rounded=0;whiteSpace=wrap;html=1;fontSize=16;" vertex="1" parent="1">
          <mxGeometry x="1028" y="175" width="132" height="39.5" as="geometry" />
        </mxCell>
        <mxCell id="pXTbhTJN17nyA_IUPfKZ-39" value="" style="endArrow=none;dashed=1;html=1;rounded=0;fontSize=12;startSize=8;endSize=8;curved=1;" edge="1" parent="1" target="pXTbhTJN17nyA_IUPfKZ-36">
          <mxGeometry width="50" height="50" relative="1" as="geometry">
            <mxPoint x="1085" y="918" as="sourcePoint" />
            <mxPoint x="1093" y="216" as="targetPoint" />
          </mxGeometry>
        </mxCell>
        <mxCell id="pXTbhTJN17nyA_IUPfKZ-36" value="" style="rounded=0;whiteSpace=wrap;html=1;fontSize=16;" vertex="1" parent="1">
          <mxGeometry x="1065" y="263" width="40" height="296" as="geometry" />
        </mxCell>
        <mxCell id="pXTbhTJN17nyA_IUPfKZ-40" value="RecordForm" style="rounded=0;whiteSpace=wrap;html=1;fontSize=16;" vertex="1" parent="1">
          <mxGeometry x="1281" y="175" width="118" height="40" as="geometry" />
        </mxCell>
        <mxCell id="pXTbhTJN17nyA_IUPfKZ-41" value="AccessForm" style="rounded=0;whiteSpace=wrap;html=1;fontSize=16;" vertex="1" parent="1">
          <mxGeometry x="1509" y="175" width="118" height="40" as="geometry" />
        </mxCell>
        <mxCell id="pXTbhTJN17nyA_IUPfKZ-43" value="" style="endArrow=none;dashed=1;html=1;rounded=0;fontSize=12;startSize=8;endSize=8;curved=1;entryX=0.5;entryY=1;entryDx=0;entryDy=0;" edge="1" parent="1" source="pXTbhTJN17nyA_IUPfKZ-48" target="pXTbhTJN17nyA_IUPfKZ-40">
          <mxGeometry width="50" height="50" relative="1" as="geometry">
            <mxPoint x="1340" y="696" as="sourcePoint" />
            <mxPoint x="1390" y="448" as="targetPoint" />
          </mxGeometry>
        </mxCell>
        <mxCell id="pXTbhTJN17nyA_IUPfKZ-44" value="" style="endArrow=none;dashed=1;html=1;rounded=0;fontSize=12;startSize=8;endSize=8;curved=1;entryX=0.5;entryY=1;entryDx=0;entryDy=0;" edge="1" parent="1" source="pXTbhTJN17nyA_IUPfKZ-50" target="pXTbhTJN17nyA_IUPfKZ-41">
          <mxGeometry width="50" height="50" relative="1" as="geometry">
            <mxPoint x="1568" y="699" as="sourcePoint" />
            <mxPoint x="1618" y="462" as="targetPoint" />
          </mxGeometry>
        </mxCell>
        <mxCell id="pXTbhTJN17nyA_IUPfKZ-49" value="" style="endArrow=none;dashed=1;html=1;rounded=0;fontSize=12;startSize=8;endSize=8;curved=1;entryX=0.5;entryY=1;entryDx=0;entryDy=0;" edge="1" parent="1" target="pXTbhTJN17nyA_IUPfKZ-48">
          <mxGeometry width="50" height="50" relative="1" as="geometry">
            <mxPoint x="1340" y="922" as="sourcePoint" />
            <mxPoint x="1340" y="215" as="targetPoint" />
          </mxGeometry>
        </mxCell>
        <mxCell id="pXTbhTJN17nyA_IUPfKZ-48" value="" style="rounded=0;whiteSpace=wrap;html=1;fontSize=16;" vertex="1" parent="1">
          <mxGeometry x="1319" y="263" width="42" height="204" as="geometry" />
        </mxCell>
        <mxCell id="pXTbhTJN17nyA_IUPfKZ-51" value="" style="endArrow=none;dashed=1;html=1;rounded=0;fontSize=12;startSize=8;endSize=8;curved=1;entryX=0.5;entryY=1;entryDx=0;entryDy=0;" edge="1" parent="1" target="pXTbhTJN17nyA_IUPfKZ-50">
          <mxGeometry width="50" height="50" relative="1" as="geometry">
            <mxPoint x="1568" y="924" as="sourcePoint" />
            <mxPoint x="1568" y="215" as="targetPoint" />
          </mxGeometry>
        </mxCell>
        <mxCell id="pXTbhTJN17nyA_IUPfKZ-50" value="" style="rounded=0;whiteSpace=wrap;html=1;fontSize=16;" vertex="1" parent="1">
          <mxGeometry x="1546.5" y="518" width="43" height="215" as="geometry" />
        </mxCell>
        <mxCell id="pXTbhTJN17nyA_IUPfKZ-53" value="" style="endArrow=none;dashed=1;html=1;rounded=0;fontSize=12;startSize=8;endSize=8;curved=1;entryX=0.5;entryY=1;entryDx=0;entryDy=0;" edge="1" parent="1" source="pXTbhTJN17nyA_IUPfKZ-59" target="pXTbhTJN17nyA_IUPfKZ-54">
          <mxGeometry width="50" height="50" relative="1" as="geometry">
            <mxPoint x="1953" y="819.5" as="sourcePoint" />
            <mxPoint x="1940.0047214076249" y="211" as="targetPoint" />
          </mxGeometry>
        </mxCell>
        <mxCell id="pXTbhTJN17nyA_IUPfKZ-54" value="SqlQueries" style="rounded=0;whiteSpace=wrap;html=1;fontSize=16;" vertex="1" parent="1">
          <mxGeometry x="1875" y="170" width="128" height="41" as="geometry" />
        </mxCell>
        <mxCell id="pXTbhTJN17nyA_IUPfKZ-56" value="" style="endArrow=classic;html=1;rounded=0;fontSize=12;startSize=8;endSize=8;curved=1;" edge="1" parent="1">
          <mxGeometry width="50" height="50" relative="1" as="geometry">
            <mxPoint x="1105" y="294" as="sourcePoint" />
            <mxPoint x="1319" y="294" as="targetPoint" />
          </mxGeometry>
        </mxCell>
        <mxCell id="pXTbhTJN17nyA_IUPfKZ-57" value="" style="endArrow=classic;html=1;rounded=0;fontSize=12;startSize=8;endSize=8;curved=1;" edge="1" parent="1">
          <mxGeometry width="50" height="50" relative="1" as="geometry">
            <mxPoint x="1105" y="541" as="sourcePoint" />
            <mxPoint x="1544" y="541" as="targetPoint" />
            <Array as="points" />
          </mxGeometry>
        </mxCell>
        <mxCell id="pXTbhTJN17nyA_IUPfKZ-58" value="" style="endArrow=classic;html=1;rounded=0;fontSize=12;startSize=8;endSize=8;curved=1;entryX=0;entryY=0;entryDx=0;entryDy=0;" edge="1" parent="1" target="pXTbhTJN17nyA_IUPfKZ-59">
          <mxGeometry width="50" height="50" relative="1" as="geometry">
            <mxPoint x="1359" y="467" as="sourcePoint" />
            <mxPoint x="1874" y="464" as="targetPoint" />
          </mxGeometry>
        </mxCell>
        <mxCell id="pXTbhTJN17nyA_IUPfKZ-60" value="" style="endArrow=none;dashed=1;html=1;rounded=0;fontSize=12;startSize=8;endSize=8;curved=1;" edge="1" parent="1" source="pXTbhTJN17nyA_IUPfKZ-62" target="pXTbhTJN17nyA_IUPfKZ-59">
          <mxGeometry width="50" height="50" relative="1" as="geometry">
            <mxPoint x="1945" y="827.5" as="sourcePoint" />
            <mxPoint x="1940.0047214076249" y="211" as="targetPoint" />
          </mxGeometry>
        </mxCell>
        <mxCell id="pXTbhTJN17nyA_IUPfKZ-59" value="" style="rounded=0;whiteSpace=wrap;html=1;fontSize=16;" vertex="1" parent="1">
          <mxGeometry x="1922.5" y="463.5" width="33" height="65" as="geometry" />
        </mxCell>
        <mxCell id="pXTbhTJN17nyA_IUPfKZ-61" value="" style="endArrow=classic;html=1;rounded=0;fontSize=12;startSize=8;endSize=8;curved=1;entryX=0;entryY=0;entryDx=0;entryDy=0;" edge="1" parent="1" target="pXTbhTJN17nyA_IUPfKZ-62">
          <mxGeometry width="50" height="50" relative="1" as="geometry">
            <mxPoint x="1590" y="732" as="sourcePoint" />
            <mxPoint x="1864" y="732" as="targetPoint" />
          </mxGeometry>
        </mxCell>
        <mxCell id="pXTbhTJN17nyA_IUPfKZ-63" value="" style="endArrow=none;dashed=1;html=1;rounded=0;fontSize=12;startSize=8;endSize=8;curved=1;" edge="1" parent="1" target="pXTbhTJN17nyA_IUPfKZ-62">
          <mxGeometry width="50" height="50" relative="1" as="geometry">
            <mxPoint x="1940" y="927.5" as="sourcePoint" />
            <mxPoint x="1940" y="528.5" as="targetPoint" />
          </mxGeometry>
        </mxCell>
        <mxCell id="pXTbhTJN17nyA_IUPfKZ-62" value="" style="rounded=0;whiteSpace=wrap;html=1;fontSize=16;" vertex="1" parent="1">
          <mxGeometry x="1922" y="729.5" width="34" height="59" as="geometry" />
        </mxCell>
        <mxCell id="pXTbhTJN17nyA_IUPfKZ-66" value="&lt;font style=&quot;font-size: 60px;&quot; face=&quot;Helvetica&quot;&gt;X&lt;/font&gt;" style="text;html=1;strokeColor=none;fillColor=none;align=center;verticalAlign=middle;whiteSpace=wrap;rounded=0;fontSize=16;rotation=90;" vertex="1" parent="1">
          <mxGeometry x="1053" y="794" width="64" height="85.5" as="geometry" />
        </mxCell>
        <mxCell id="pXTbhTJN17nyA_IUPfKZ-69" value="Admin" style="shape=umlActor;verticalLabelPosition=bottom;verticalAlign=top;html=1;outlineConnect=0;fontSize=16;" vertex="1" parent="1">
          <mxGeometry x="2150" y="61" width="56" height="118" as="geometry" />
        </mxCell>
        <mxCell id="pXTbhTJN17nyA_IUPfKZ-70" value="" style="endArrow=none;dashed=1;html=1;rounded=0;fontSize=12;startSize=8;endSize=8;curved=1;" edge="1" parent="1" source="pXTbhTJN17nyA_IUPfKZ-88">
          <mxGeometry width="50" height="50" relative="1" as="geometry">
            <mxPoint x="2365.17" y="818" as="sourcePoint" />
            <mxPoint x="2365.17" y="206" as="targetPoint" />
          </mxGeometry>
        </mxCell>
        <mxCell id="pXTbhTJN17nyA_IUPfKZ-72" value="LoginForm" style="rounded=0;whiteSpace=wrap;html=1;fontSize=16;" vertex="1" parent="1">
          <mxGeometry x="3708" y="125.5" width="120" height="39" as="geometry" />
        </mxCell>
        <mxCell id="pXTbhTJN17nyA_IUPfKZ-73" value="SearchForm" style="rounded=0;whiteSpace=wrap;html=1;fontSize=16;" vertex="1" parent="1">
          <mxGeometry x="2495" y="124" width="120" height="41" as="geometry" />
        </mxCell>
        <mxCell id="pXTbhTJN17nyA_IUPfKZ-74" value="SearchVendorsForm" style="rounded=0;whiteSpace=wrap;html=1;fontSize=16;" vertex="1" parent="1">
          <mxGeometry x="2633" y="124" width="159" height="41" as="geometry" />
        </mxCell>
        <mxCell id="pXTbhTJN17nyA_IUPfKZ-75" value="AdminHomePage" style="rounded=0;whiteSpace=wrap;html=1;fontSize=16;" vertex="1" parent="1">
          <mxGeometry x="3343" y="127.5" width="145" height="41" as="geometry" />
        </mxCell>
        <mxCell id="pXTbhTJN17nyA_IUPfKZ-76" value="RecordForm" style="rounded=0;whiteSpace=wrap;html=1;fontSize=16;" vertex="1" parent="1">
          <mxGeometry x="2830" y="127.5" width="134" height="41" as="geometry" />
        </mxCell>
        <mxCell id="pXTbhTJN17nyA_IUPfKZ-77" value="AccessForm" style="rounded=0;whiteSpace=wrap;html=1;fontSize=16;" vertex="1" parent="1">
          <mxGeometry x="3007" y="127.5" width="120" height="41" as="geometry" />
        </mxCell>
        <mxCell id="pXTbhTJN17nyA_IUPfKZ-78" value="HelpRequestForm" style="rounded=0;whiteSpace=wrap;html=1;fontSize=16;" vertex="1" parent="1">
          <mxGeometry x="3160" y="124" width="153" height="39" as="geometry" />
        </mxCell>
        <mxCell id="pXTbhTJN17nyA_IUPfKZ-79" value="HelpForm" style="rounded=0;whiteSpace=wrap;html=1;fontSize=16;" vertex="1" parent="1">
          <mxGeometry x="3501" y="124" width="127" height="42" as="geometry" />
        </mxCell>
        <mxCell id="pXTbhTJN17nyA_IUPfKZ-80" value="" style="endArrow=none;dashed=1;html=1;rounded=0;fontSize=12;startSize=8;endSize=8;curved=1;entryX=0.5;entryY=1;entryDx=0;entryDy=0;" edge="1" parent="1" source="pXTbhTJN17nyA_IUPfKZ-90" target="pXTbhTJN17nyA_IUPfKZ-73">
          <mxGeometry width="50" height="50" relative="1" as="geometry">
            <mxPoint x="2555" y="810" as="sourcePoint" />
            <mxPoint x="2725" y="254" as="targetPoint" />
          </mxGeometry>
        </mxCell>
        <mxCell id="pXTbhTJN17nyA_IUPfKZ-81" value="" style="endArrow=none;dashed=1;html=1;rounded=0;fontSize=12;startSize=8;endSize=8;curved=1;entryX=0.5;entryY=1;entryDx=0;entryDy=0;" edge="1" parent="1" source="pXTbhTJN17nyA_IUPfKZ-92">
          <mxGeometry width="50" height="50" relative="1" as="geometry">
            <mxPoint x="2711.67" y="811" as="sourcePoint" />
            <mxPoint x="2711.67" y="166" as="targetPoint" />
          </mxGeometry>
        </mxCell>
        <mxCell id="pXTbhTJN17nyA_IUPfKZ-82" value="" style="endArrow=none;dashed=1;html=1;rounded=0;fontSize=12;startSize=8;endSize=8;curved=1;entryX=0.5;entryY=1;entryDx=0;entryDy=0;" edge="1" parent="1" source="pXTbhTJN17nyA_IUPfKZ-96">
          <mxGeometry width="50" height="50" relative="1" as="geometry">
            <mxPoint x="3409" y="814.5" as="sourcePoint" />
            <mxPoint x="3409" y="169.5" as="targetPoint" />
          </mxGeometry>
        </mxCell>
        <mxCell id="pXTbhTJN17nyA_IUPfKZ-83" value="" style="endArrow=none;dashed=1;html=1;rounded=0;fontSize=12;startSize=8;endSize=8;curved=1;entryX=0.5;entryY=1;entryDx=0;entryDy=0;" edge="1" parent="1" source="pXTbhTJN17nyA_IUPfKZ-98">
          <mxGeometry width="50" height="50" relative="1" as="geometry">
            <mxPoint x="3563.67" y="810" as="sourcePoint" />
            <mxPoint x="3563.67" y="165" as="targetPoint" />
          </mxGeometry>
        </mxCell>
        <mxCell id="pXTbhTJN17nyA_IUPfKZ-84" value="" style="endArrow=none;dashed=1;html=1;rounded=0;fontSize=12;startSize=8;endSize=8;curved=1;entryX=0.5;entryY=1;entryDx=0;entryDy=0;" edge="1" parent="1" source="pXTbhTJN17nyA_IUPfKZ-109">
          <mxGeometry width="50" height="50" relative="1" as="geometry">
            <mxPoint x="2896.17" y="814.5" as="sourcePoint" />
            <mxPoint x="2896.17" y="169.5" as="targetPoint" />
          </mxGeometry>
        </mxCell>
        <mxCell id="pXTbhTJN17nyA_IUPfKZ-85" value="" style="endArrow=none;dashed=1;html=1;rounded=0;fontSize=12;startSize=8;endSize=8;curved=1;entryX=0.5;entryY=1;entryDx=0;entryDy=0;" edge="1" parent="1" source="pXTbhTJN17nyA_IUPfKZ-111">
          <mxGeometry width="50" height="50" relative="1" as="geometry">
            <mxPoint x="3066.17" y="814.5" as="sourcePoint" />
            <mxPoint x="3066.17" y="169.5" as="targetPoint" />
          </mxGeometry>
        </mxCell>
        <mxCell id="pXTbhTJN17nyA_IUPfKZ-86" value="" style="endArrow=none;dashed=1;html=1;rounded=0;fontSize=12;startSize=8;endSize=8;curved=1;entryX=0.5;entryY=1;entryDx=0;entryDy=0;" edge="1" parent="1" source="pXTbhTJN17nyA_IUPfKZ-115">
          <mxGeometry width="50" height="50" relative="1" as="geometry">
            <mxPoint x="3238" y="895.5" as="sourcePoint" />
            <mxPoint x="3238" y="163" as="targetPoint" />
          </mxGeometry>
        </mxCell>
        <mxCell id="pXTbhTJN17nyA_IUPfKZ-87" value="" style="endArrow=none;dashed=1;html=1;rounded=0;fontSize=12;startSize=8;endSize=8;curved=1;entryX=0.5;entryY=1;entryDx=0;entryDy=0;" edge="1" parent="1" source="pXTbhTJN17nyA_IUPfKZ-119">
          <mxGeometry width="50" height="50" relative="1" as="geometry">
            <mxPoint x="3771" y="887" as="sourcePoint" />
            <mxPoint x="3771" y="165.5" as="targetPoint" />
          </mxGeometry>
        </mxCell>
        <mxCell id="pXTbhTJN17nyA_IUPfKZ-89" value="" style="endArrow=none;dashed=1;html=1;rounded=0;fontSize=12;startSize=8;endSize=8;curved=1;" edge="1" parent="1" target="pXTbhTJN17nyA_IUPfKZ-88">
          <mxGeometry width="50" height="50" relative="1" as="geometry">
            <mxPoint x="2365" y="936" as="sourcePoint" />
            <mxPoint x="2365.17" y="206" as="targetPoint" />
          </mxGeometry>
        </mxCell>
        <mxCell id="pXTbhTJN17nyA_IUPfKZ-88" value="" style="rounded=0;whiteSpace=wrap;html=1;fontSize=16;" vertex="1" parent="1">
          <mxGeometry x="2348.5" y="243" width="35" height="378" as="geometry" />
        </mxCell>
        <mxCell id="pXTbhTJN17nyA_IUPfKZ-91" value="" style="endArrow=none;dashed=1;html=1;rounded=0;fontSize=12;startSize=8;endSize=8;curved=1;entryX=0.5;entryY=1;entryDx=0;entryDy=0;" edge="1" parent="1" target="pXTbhTJN17nyA_IUPfKZ-90">
          <mxGeometry width="50" height="50" relative="1" as="geometry">
            <mxPoint x="2555" y="1012" as="sourcePoint" />
            <mxPoint x="2555" y="165" as="targetPoint" />
          </mxGeometry>
        </mxCell>
        <mxCell id="pXTbhTJN17nyA_IUPfKZ-90" value="" style="rounded=0;whiteSpace=wrap;html=1;fontSize=16;" vertex="1" parent="1">
          <mxGeometry x="2538.5" y="243" width="33" height="632" as="geometry" />
        </mxCell>
        <mxCell id="pXTbhTJN17nyA_IUPfKZ-93" value="" style="endArrow=none;dashed=1;html=1;rounded=0;fontSize=12;startSize=8;endSize=8;curved=1;entryX=0.5;entryY=1;entryDx=0;entryDy=0;" edge="1" parent="1" target="pXTbhTJN17nyA_IUPfKZ-92">
          <mxGeometry width="50" height="50" relative="1" as="geometry">
            <mxPoint x="2713" y="1006" as="sourcePoint" />
            <mxPoint x="2711.67" y="166" as="targetPoint" />
          </mxGeometry>
        </mxCell>
        <mxCell id="pXTbhTJN17nyA_IUPfKZ-92" value="" style="rounded=0;whiteSpace=wrap;html=1;fontSize=16;" vertex="1" parent="1">
          <mxGeometry x="2698.25" y="284" width="28.5" height="112" as="geometry" />
        </mxCell>
        <mxCell id="pXTbhTJN17nyA_IUPfKZ-94" value="" style="endArrow=classic;html=1;rounded=0;fontSize=12;startSize=8;endSize=8;curved=1;" edge="1" parent="1">
          <mxGeometry width="50" height="50" relative="1" as="geometry">
            <mxPoint x="2383" y="271" as="sourcePoint" />
            <mxPoint x="2540" y="271" as="targetPoint" />
          </mxGeometry>
        </mxCell>
        <mxCell id="pXTbhTJN17nyA_IUPfKZ-95" value="" style="endArrow=classic;html=1;rounded=0;fontSize=12;startSize=8;endSize=8;curved=1;" edge="1" parent="1">
          <mxGeometry width="50" height="50" relative="1" as="geometry">
            <mxPoint x="2574" y="305" as="sourcePoint" />
            <mxPoint x="2693" y="305" as="targetPoint" />
          </mxGeometry>
        </mxCell>
        <mxCell id="pXTbhTJN17nyA_IUPfKZ-97" value="" style="endArrow=none;dashed=1;html=1;rounded=0;fontSize=12;startSize=8;endSize=8;curved=1;entryX=0.5;entryY=1;entryDx=0;entryDy=0;" edge="1" parent="1" target="pXTbhTJN17nyA_IUPfKZ-96">
          <mxGeometry width="50" height="50" relative="1" as="geometry">
            <mxPoint x="3410" y="990" as="sourcePoint" />
            <mxPoint x="3409" y="169.5" as="targetPoint" />
          </mxGeometry>
        </mxCell>
        <mxCell id="pXTbhTJN17nyA_IUPfKZ-96" value="" style="rounded=0;whiteSpace=wrap;html=1;fontSize=16;" vertex="1" parent="1">
          <mxGeometry x="3394" y="552.5" width="30" height="341.5" as="geometry" />
        </mxCell>
        <mxCell id="pXTbhTJN17nyA_IUPfKZ-99" value="" style="endArrow=none;dashed=1;html=1;rounded=0;fontSize=12;startSize=8;endSize=8;curved=1;entryX=0.5;entryY=1;entryDx=0;entryDy=0;" edge="1" parent="1" target="pXTbhTJN17nyA_IUPfKZ-98">
          <mxGeometry width="50" height="50" relative="1" as="geometry">
            <mxPoint x="3565" y="1001" as="sourcePoint" />
            <mxPoint x="2717.67" y="163" as="targetPoint" />
          </mxGeometry>
        </mxCell>
        <mxCell id="pXTbhTJN17nyA_IUPfKZ-98" value="" style="rounded=0;whiteSpace=wrap;html=1;fontSize=16;" vertex="1" parent="1">
          <mxGeometry x="3548.5" y="271" width="32" height="203" as="geometry" />
        </mxCell>
        <mxCell id="pXTbhTJN17nyA_IUPfKZ-101" value="Consultant" style="shape=umlActor;verticalLabelPosition=bottom;verticalAlign=top;html=1;outlineConnect=0;fontSize=16;" vertex="1" parent="1">
          <mxGeometry x="2338" y="64" width="56" height="118" as="geometry" />
        </mxCell>
        <mxCell id="pXTbhTJN17nyA_IUPfKZ-102" value="" style="endArrow=none;dashed=1;html=1;rounded=0;fontSize=12;startSize=8;endSize=8;curved=1;" edge="1" parent="1" source="pXTbhTJN17nyA_IUPfKZ-103">
          <mxGeometry width="50" height="50" relative="1" as="geometry">
            <mxPoint x="2177" y="829" as="sourcePoint" />
            <mxPoint x="2177" y="202" as="targetPoint" />
          </mxGeometry>
        </mxCell>
        <mxCell id="pXTbhTJN17nyA_IUPfKZ-104" value="" style="endArrow=none;dashed=1;html=1;rounded=0;fontSize=12;startSize=8;endSize=8;curved=1;" edge="1" parent="1" target="pXTbhTJN17nyA_IUPfKZ-103">
          <mxGeometry width="50" height="50" relative="1" as="geometry">
            <mxPoint x="2177" y="940" as="sourcePoint" />
            <mxPoint x="2177" y="202" as="targetPoint" />
          </mxGeometry>
        </mxCell>
        <mxCell id="pXTbhTJN17nyA_IUPfKZ-103" value="" style="rounded=0;whiteSpace=wrap;html=1;fontSize=16;" vertex="1" parent="1">
          <mxGeometry x="2161" y="240" width="33" height="460" as="geometry" />
        </mxCell>
        <mxCell id="pXTbhTJN17nyA_IUPfKZ-105" value="" style="endArrow=classic;html=1;rounded=0;fontSize=12;startSize=8;endSize=8;curved=1;" edge="1" parent="1">
          <mxGeometry width="50" height="50" relative="1" as="geometry">
            <mxPoint x="2194" y="667" as="sourcePoint" />
            <mxPoint x="2539" y="667" as="targetPoint" />
          </mxGeometry>
        </mxCell>
        <mxCell id="pXTbhTJN17nyA_IUPfKZ-106" value="" style="endArrow=classic;html=1;rounded=0;fontSize=12;startSize=8;endSize=8;curved=1;" edge="1" parent="1">
          <mxGeometry width="50" height="50" relative="1" as="geometry">
            <mxPoint x="2574" y="553" as="sourcePoint" />
            <mxPoint x="2875" y="553" as="targetPoint" />
          </mxGeometry>
        </mxCell>
        <mxCell id="pXTbhTJN17nyA_IUPfKZ-107" value="" style="endArrow=classic;html=1;rounded=0;fontSize=12;startSize=8;endSize=8;curved=1;" edge="1" parent="1">
          <mxGeometry width="50" height="50" relative="1" as="geometry">
            <mxPoint x="2728" y="348" as="sourcePoint" />
            <mxPoint x="3548" y="348" as="targetPoint" />
          </mxGeometry>
        </mxCell>
        <mxCell id="pXTbhTJN17nyA_IUPfKZ-108" value="" style="endArrow=classic;html=1;rounded=0;fontSize=12;startSize=8;endSize=8;curved=1;entryX=0.011;entryY=0.476;entryDx=0;entryDy=0;entryPerimeter=0;" edge="1" parent="1" target="pXTbhTJN17nyA_IUPfKZ-119">
          <mxGeometry width="50" height="50" relative="1" as="geometry">
            <mxPoint x="2572" y="509" as="sourcePoint" />
            <mxPoint x="3673" y="506" as="targetPoint" />
          </mxGeometry>
        </mxCell>
        <mxCell id="pXTbhTJN17nyA_IUPfKZ-110" value="" style="endArrow=none;dashed=1;html=1;rounded=0;fontSize=12;startSize=8;endSize=8;curved=1;entryX=0.5;entryY=1;entryDx=0;entryDy=0;" edge="1" parent="1" target="pXTbhTJN17nyA_IUPfKZ-109">
          <mxGeometry width="50" height="50" relative="1" as="geometry">
            <mxPoint x="2897" y="1003" as="sourcePoint" />
            <mxPoint x="2896.17" y="169.5" as="targetPoint" />
          </mxGeometry>
        </mxCell>
        <mxCell id="pXTbhTJN17nyA_IUPfKZ-109" value="" style="rounded=0;whiteSpace=wrap;html=1;fontSize=16;" vertex="1" parent="1">
          <mxGeometry x="2877" y="550" width="40" height="121" as="geometry" />
        </mxCell>
        <mxCell id="pXTbhTJN17nyA_IUPfKZ-112" value="" style="endArrow=none;dashed=1;html=1;rounded=0;fontSize=12;startSize=8;endSize=8;curved=1;entryX=0.5;entryY=1;entryDx=0;entryDy=0;" edge="1" parent="1" target="pXTbhTJN17nyA_IUPfKZ-111">
          <mxGeometry width="50" height="50" relative="1" as="geometry">
            <mxPoint x="3067" y="1001" as="sourcePoint" />
            <mxPoint x="3066.17" y="169.5" as="targetPoint" />
          </mxGeometry>
        </mxCell>
        <mxCell id="pXTbhTJN17nyA_IUPfKZ-111" value="" style="rounded=0;whiteSpace=wrap;html=1;fontSize=16;" vertex="1" parent="1">
          <mxGeometry x="3045" y="674" width="44" height="124" as="geometry" />
        </mxCell>
        <mxCell id="pXTbhTJN17nyA_IUPfKZ-113" value="" style="endArrow=classic;html=1;rounded=0;fontSize=12;startSize=8;endSize=8;curved=1;" edge="1" parent="1">
          <mxGeometry width="50" height="50" relative="1" as="geometry">
            <mxPoint x="2573" y="695" as="sourcePoint" />
            <mxPoint x="3041" y="692" as="targetPoint" />
          </mxGeometry>
        </mxCell>
        <mxCell id="pXTbhTJN17nyA_IUPfKZ-114" value="" style="endArrow=classic;html=1;rounded=0;fontSize=12;startSize=8;endSize=8;curved=1;exitX=1;exitY=1;exitDx=0;exitDy=0;" edge="1" parent="1" source="pXTbhTJN17nyA_IUPfKZ-90">
          <mxGeometry width="50" height="50" relative="1" as="geometry">
            <mxPoint x="2848" y="678" as="sourcePoint" />
            <mxPoint x="3391" y="875" as="targetPoint" />
          </mxGeometry>
        </mxCell>
        <mxCell id="pXTbhTJN17nyA_IUPfKZ-116" value="" style="endArrow=none;dashed=1;html=1;rounded=0;fontSize=12;startSize=8;endSize=8;curved=1;entryX=0.5;entryY=1;entryDx=0;entryDy=0;" edge="1" parent="1" target="pXTbhTJN17nyA_IUPfKZ-115">
          <mxGeometry width="50" height="50" relative="1" as="geometry">
            <mxPoint x="3237" y="989" as="sourcePoint" />
            <mxPoint x="3238" y="163" as="targetPoint" />
          </mxGeometry>
        </mxCell>
        <mxCell id="pXTbhTJN17nyA_IUPfKZ-115" value="" style="rounded=0;whiteSpace=wrap;html=1;fontSize=16;" vertex="1" parent="1">
          <mxGeometry x="3213" y="777" width="47" height="89" as="geometry" />
        </mxCell>
        <mxCell id="pXTbhTJN17nyA_IUPfKZ-117" value="" style="endArrow=classic;html=1;rounded=0;fontSize=12;startSize=8;endSize=8;curved=1;" edge="1" parent="1">
          <mxGeometry width="50" height="50" relative="1" as="geometry">
            <mxPoint x="2575" y="818" as="sourcePoint" />
            <mxPoint x="3214" y="818" as="targetPoint" />
          </mxGeometry>
        </mxCell>
        <mxCell id="pXTbhTJN17nyA_IUPfKZ-120" value="" style="endArrow=none;dashed=1;html=1;rounded=0;fontSize=12;startSize=8;endSize=8;curved=1;entryX=0.5;entryY=1;entryDx=0;entryDy=0;" edge="1" parent="1" target="pXTbhTJN17nyA_IUPfKZ-119">
          <mxGeometry width="50" height="50" relative="1" as="geometry">
            <mxPoint x="3768" y="994" as="sourcePoint" />
            <mxPoint x="3707" y="167.5" as="targetPoint" />
          </mxGeometry>
        </mxCell>
        <mxCell id="pXTbhTJN17nyA_IUPfKZ-119" value="" style="rounded=0;whiteSpace=wrap;html=1;fontSize=16;" vertex="1" parent="1">
          <mxGeometry x="3745.5" y="219" width="45" height="609" as="geometry" />
        </mxCell>
        <mxCell id="pXTbhTJN17nyA_IUPfKZ-121" value="" style="endArrow=classic;html=1;rounded=0;fontSize=12;startSize=8;endSize=8;curved=1;exitX=1;exitY=0;exitDx=0;exitDy=0;entryX=0.011;entryY=0.043;entryDx=0;entryDy=0;entryPerimeter=0;" edge="1" parent="1" source="pXTbhTJN17nyA_IUPfKZ-90" target="pXTbhTJN17nyA_IUPfKZ-119">
          <mxGeometry width="50" height="50" relative="1" as="geometry">
            <mxPoint x="2858" y="268" as="sourcePoint" />
            <mxPoint x="3678" y="243" as="targetPoint" />
          </mxGeometry>
        </mxCell>
        <mxCell id="pXTbhTJN17nyA_IUPfKZ-123" value="&lt;font style=&quot;font-size: 60px;&quot; face=&quot;Helvetica&quot;&gt;X&lt;/font&gt;" style="text;html=1;strokeColor=none;fillColor=none;align=center;verticalAlign=middle;whiteSpace=wrap;rounded=0;fontSize=16;rotation=90;" vertex="1" parent="1">
          <mxGeometry x="1907" y="790.5" width="64" height="85.5" as="geometry" />
        </mxCell>
        <mxCell id="pXTbhTJN17nyA_IUPfKZ-126" value="3. User Story as a consultant" style="text;html=1;strokeColor=none;fillColor=none;align=center;verticalAlign=middle;whiteSpace=wrap;rounded=0;fontSize=16;" vertex="1" parent="1">
          <mxGeometry x="2456" y="-61" width="244" height="83" as="geometry" />
        </mxCell>
        <mxCell id="pXTbhTJN17nyA_IUPfKZ-127" value="Back to SearchForm" style="text;html=1;strokeColor=none;fillColor=none;align=center;verticalAlign=middle;whiteSpace=wrap;rounded=0;fontSize=16;" vertex="1" parent="1">
          <mxGeometry x="2206" y="633" width="151" height="30" as="geometry" />
        </mxCell>
        <mxCell id="pXTbhTJN17nyA_IUPfKZ-128" value="Back to SearchForm" style="text;html=1;strokeColor=none;fillColor=none;align=center;verticalAlign=middle;whiteSpace=wrap;rounded=0;fontSize=16;" vertex="1" parent="1">
          <mxGeometry x="2390" y="240" width="151" height="30" as="geometry" />
        </mxCell>
        <mxCell id="pXTbhTJN17nyA_IUPfKZ-129" value="Back to RecordForm" style="text;html=1;strokeColor=none;fillColor=none;align=center;verticalAlign=middle;whiteSpace=wrap;rounded=0;fontSize=16;" vertex="1" parent="1">
          <mxGeometry x="2589" y="518" width="117.5" height="30" as="geometry" />
        </mxCell>
        <mxCell id="pXTbhTJN17nyA_IUPfKZ-131" value="Back to AdminHomePageForm" style="text;html=1;strokeColor=none;fillColor=none;align=center;verticalAlign=middle;whiteSpace=wrap;rounded=0;fontSize=16;" vertex="1" parent="1">
          <mxGeometry x="2712" y="828" width="191" height="47" as="geometry" />
        </mxCell>
        <mxCell id="pXTbhTJN17nyA_IUPfKZ-132" value="Back to HelpRequestForm" style="text;html=1;strokeColor=none;fillColor=none;align=center;verticalAlign=middle;whiteSpace=wrap;rounded=0;fontSize=16;" vertex="1" parent="1">
          <mxGeometry x="2586" y="781" width="114" height="30" as="geometry" />
        </mxCell>
        <mxCell id="pXTbhTJN17nyA_IUPfKZ-133" value="Back to LoginForm" style="text;html=1;strokeColor=none;fillColor=none;align=center;verticalAlign=middle;whiteSpace=wrap;rounded=0;fontSize=16;" vertex="1" parent="1">
          <mxGeometry x="2586" y="473" width="109" height="30" as="geometry" />
        </mxCell>
        <mxCell id="pXTbhTJN17nyA_IUPfKZ-134" value="Back to AccessForm" style="text;html=1;strokeColor=none;fillColor=none;align=center;verticalAlign=middle;whiteSpace=wrap;rounded=0;fontSize=16;" vertex="1" parent="1">
          <mxGeometry x="2584" y="655" width="107" height="35" as="geometry" />
        </mxCell>
        <mxCell id="pXTbhTJN17nyA_IUPfKZ-135" value="Back to HelpForm" style="text;html=1;strokeColor=none;fillColor=none;align=center;verticalAlign=middle;whiteSpace=wrap;rounded=0;fontSize=16;" vertex="1" parent="1">
          <mxGeometry x="2572.5" y="207" width="130" height="30" as="geometry" />
        </mxCell>
        <mxCell id="pXTbhTJN17nyA_IUPfKZ-136" value="Back to SearchVendors" style="text;html=1;strokeColor=none;fillColor=none;align=center;verticalAlign=middle;whiteSpace=wrap;rounded=0;fontSize=16;" vertex="1" parent="1">
          <mxGeometry x="2579" y="226" width="108" height="105" as="geometry" />
        </mxCell>
        <mxCell id="pXTbhTJN17nyA_IUPfKZ-137" value="Back to HelpForm" style="text;html=1;strokeColor=none;fillColor=none;align=center;verticalAlign=middle;whiteSpace=wrap;rounded=0;fontSize=16;" vertex="1" parent="1">
          <mxGeometry x="2743" y="306" width="109" height="30" as="geometry" />
        </mxCell>
        <mxCell id="pXTbhTJN17nyA_IUPfKZ-139" value="&lt;font style=&quot;font-size: 60px;&quot; face=&quot;Helvetica&quot;&gt;X&lt;/font&gt;" style="text;html=1;strokeColor=none;fillColor=none;align=center;verticalAlign=middle;whiteSpace=wrap;rounded=0;fontSize=16;rotation=90;" vertex="1" parent="1">
          <mxGeometry x="2525" y="898" width="64" height="85.5" as="geometry" />
        </mxCell>
        <mxCell id="pXTbhTJN17nyA_IUPfKZ-141" value="&lt;font style=&quot;font-size: 60px;&quot; face=&quot;Helvetica&quot;&gt;X&lt;/font&gt;" style="text;html=1;strokeColor=none;fillColor=none;align=center;verticalAlign=middle;whiteSpace=wrap;rounded=0;fontSize=16;rotation=90;" vertex="1" parent="1">
          <mxGeometry x="2679" y="898" width="64" height="85.5" as="geometry" />
        </mxCell>
        <mxCell id="pXTbhTJN17nyA_IUPfKZ-142" value="&lt;font style=&quot;font-size: 60px;&quot; face=&quot;Helvetica&quot;&gt;X&lt;/font&gt;" style="text;html=1;strokeColor=none;fillColor=none;align=center;verticalAlign=middle;whiteSpace=wrap;rounded=0;fontSize=16;rotation=90;" vertex="1" parent="1">
          <mxGeometry x="2865" y="898" width="64" height="85.5" as="geometry" />
        </mxCell>
        <mxCell id="pXTbhTJN17nyA_IUPfKZ-143" value="&lt;font style=&quot;font-size: 60px;&quot; face=&quot;Helvetica&quot;&gt;X&lt;/font&gt;" style="text;html=1;strokeColor=none;fillColor=none;align=center;verticalAlign=middle;whiteSpace=wrap;rounded=0;fontSize=16;rotation=90;" vertex="1" parent="1">
          <mxGeometry x="3032" y="898" width="64" height="85.5" as="geometry" />
        </mxCell>
        <mxCell id="pXTbhTJN17nyA_IUPfKZ-144" value="&lt;font style=&quot;font-size: 60px;&quot; face=&quot;Helvetica&quot;&gt;X&lt;/font&gt;" style="text;html=1;strokeColor=none;fillColor=none;align=center;verticalAlign=middle;whiteSpace=wrap;rounded=0;fontSize=16;rotation=90;" vertex="1" parent="1">
          <mxGeometry x="3204.5" y="891" width="64" height="85.5" as="geometry" />
        </mxCell>
        <mxCell id="pXTbhTJN17nyA_IUPfKZ-145" value="&lt;font style=&quot;font-size: 60px;&quot; face=&quot;Helvetica&quot;&gt;X&lt;/font&gt;" style="text;html=1;strokeColor=none;fillColor=none;align=center;verticalAlign=middle;whiteSpace=wrap;rounded=0;fontSize=16;rotation=90;" vertex="1" parent="1">
          <mxGeometry x="3377" y="891" width="64" height="85.5" as="geometry" />
        </mxCell>
        <mxCell id="pXTbhTJN17nyA_IUPfKZ-148" value="" style="endArrow=classic;html=1;rounded=0;fontSize=12;startSize=8;endSize=8;curved=1;entryX=0.033;entryY=0.118;entryDx=0;entryDy=0;entryPerimeter=0;" edge="1" parent="1" target="pXTbhTJN17nyA_IUPfKZ-119">
          <mxGeometry width="50" height="50" relative="1" as="geometry">
            <mxPoint x="3583" y="291" as="sourcePoint" />
            <mxPoint x="3610" y="412" as="targetPoint" />
          </mxGeometry>
        </mxCell>
        <mxCell id="pXTbhTJN17nyA_IUPfKZ-149" value="&lt;font style=&quot;font-size: 60px;&quot; face=&quot;Helvetica&quot;&gt;X&lt;/font&gt;" style="text;html=1;strokeColor=none;fillColor=none;align=center;verticalAlign=middle;whiteSpace=wrap;rounded=0;fontSize=16;rotation=90;" vertex="1" parent="1">
          <mxGeometry x="3532.5" y="901" width="64" height="85.5" as="geometry" />
        </mxCell>
        <mxCell id="pXTbhTJN17nyA_IUPfKZ-150" value="Back to LoginForm" style="text;html=1;strokeColor=none;fillColor=none;align=center;verticalAlign=middle;whiteSpace=wrap;rounded=0;fontSize=16;" vertex="1" parent="1">
          <mxGeometry x="3624" y="254" width="90" height="30" as="geometry" />
        </mxCell>
        <mxCell id="pXTbhTJN17nyA_IUPfKZ-151" value="AccessClass" style="rounded=0;whiteSpace=wrap;html=1;fontSize=16;" vertex="1" parent="1">
          <mxGeometry x="1713" y="171" width="120" height="40" as="geometry" />
        </mxCell>
        <mxCell id="pXTbhTJN17nyA_IUPfKZ-152" value="" style="endArrow=none;dashed=1;html=1;rounded=0;fontSize=12;startSize=8;endSize=8;curved=1;entryX=0.5;entryY=1;entryDx=0;entryDy=0;" edge="1" parent="1" source="pXTbhTJN17nyA_IUPfKZ-153" target="pXTbhTJN17nyA_IUPfKZ-151">
          <mxGeometry width="50" height="50" relative="1" as="geometry">
            <mxPoint x="1776" y="932.5" as="sourcePoint" />
            <mxPoint x="1622" y="607.5" as="targetPoint" />
          </mxGeometry>
        </mxCell>
        <mxCell id="pXTbhTJN17nyA_IUPfKZ-154" value="" style="endArrow=none;dashed=1;html=1;rounded=0;fontSize=12;startSize=8;endSize=8;curved=1;entryX=0.5;entryY=1;entryDx=0;entryDy=0;" edge="1" parent="1" source="pXTbhTJN17nyA_IUPfKZ-155" target="pXTbhTJN17nyA_IUPfKZ-153">
          <mxGeometry width="50" height="50" relative="1" as="geometry">
            <mxPoint x="1776" y="932.5" as="sourcePoint" />
            <mxPoint x="1773" y="211.5" as="targetPoint" />
          </mxGeometry>
        </mxCell>
        <mxCell id="pXTbhTJN17nyA_IUPfKZ-153" value="" style="rounded=0;whiteSpace=wrap;html=1;fontSize=16;" vertex="1" parent="1">
          <mxGeometry x="1759" y="514.5" width="38" height="72" as="geometry" />
        </mxCell>
        <mxCell id="pXTbhTJN17nyA_IUPfKZ-156" value="" style="endArrow=none;dashed=1;html=1;rounded=0;fontSize=12;startSize=8;endSize=8;curved=1;entryX=0.5;entryY=1;entryDx=0;entryDy=0;" edge="1" parent="1" target="pXTbhTJN17nyA_IUPfKZ-155">
          <mxGeometry width="50" height="50" relative="1" as="geometry">
            <mxPoint x="1784" y="936" as="sourcePoint" />
            <mxPoint x="1778" y="587" as="targetPoint" />
          </mxGeometry>
        </mxCell>
        <mxCell id="pXTbhTJN17nyA_IUPfKZ-155" value="" style="rounded=0;whiteSpace=wrap;html=1;fontSize=16;" vertex="1" parent="1">
          <mxGeometry x="1759" y="633" width="41" height="69" as="geometry" />
        </mxCell>
        <mxCell id="pXTbhTJN17nyA_IUPfKZ-157" value="" style="endArrow=classic;html=1;rounded=0;fontSize=12;startSize=8;endSize=8;curved=1;" edge="1" parent="1">
          <mxGeometry width="50" height="50" relative="1" as="geometry">
            <mxPoint x="1592" y="521" as="sourcePoint" />
            <mxPoint x="1759" y="519" as="targetPoint" />
          </mxGeometry>
        </mxCell>
        <mxCell id="pXTbhTJN17nyA_IUPfKZ-159" value="" style="endArrow=classic;html=1;rounded=0;fontSize=12;startSize=8;endSize=8;curved=1;dashed=1;exitX=0;exitY=1;exitDx=0;exitDy=0;" edge="1" parent="1" source="pXTbhTJN17nyA_IUPfKZ-153">
          <mxGeometry width="50" height="50" relative="1" as="geometry">
            <mxPoint x="1542" y="714" as="sourcePoint" />
            <mxPoint x="1590" y="588" as="targetPoint" />
          </mxGeometry>
        </mxCell>
      </root>
    </mxGraphModel>
  </diagram>
</mxfile>
